<svg width="428" height="56" viewBox="0 0 428 56" fill="none" xmlns="http://www.w3.org/2000/svg">
<path fill-rule="evenodd" clip-rule="evenodd" d="M47.9998 28.0003C47.9998 28.2655 47.8945 28.5199 47.7069 28.7074C47.5194 28.8949 47.2651 29.0003 46.9998 29.0003H35.4138L39.7078 33.2923C39.8008 33.3853 39.8746 33.4956 39.9249 33.6171C39.9752 33.7386 40.0011 33.8688 40.0011 34.0003C40.0011 34.1318 39.9752 34.262 39.9249 34.3835C39.8746 34.5049 39.8008 34.6153 39.7078 34.7083C39.6149 34.8013 39.5045 34.875 39.383 34.9253C39.2615 34.9757 39.1313 35.0015 38.9998 35.0015C38.8683 35.0015 38.7381 34.9757 38.6167 34.9253C38.4952 34.875 38.3848 34.8013 38.2918 34.7083L32.2918 28.7083C32.1987 28.6154 32.1248 28.505 32.0744 28.3836C32.024 28.2621 31.998 28.1318 31.998 28.0003C31.998 27.8688 32.024 27.7385 32.0744 27.617C32.1248 27.4955 32.1987 27.3852 32.2918 27.2923L38.2918 21.2923C38.4796 21.1045 38.7343 20.999 38.9998 20.999C39.2654 20.999 39.5201 21.1045 39.7078 21.2923C39.8956 21.4801 40.0011 21.7347 40.0011 22.0003C40.0011 22.2658 39.8956 22.5205 39.7078 22.7083L35.4138 27.0003H46.9998C47.2651 27.0003 47.5194 27.1056 47.7069 27.2932C47.8945 27.4807 47.9998 27.7351 47.9998 28.0003Z" fill="black"/>
</svg>
